<svg width="640" height="965" viewBox="0 0 640 965" fill="none" xmlns="http://www.w3.org/2000/svg">
<path d="M297.547 0.47139C308.072 -0.62041 319.773 0.314387 330.159 1.94459C347.659 4.69169 365.02 10.3637 382.125 14.8767C398.764 19.2657 415.493 21.8137 431.135 29.4037C454.44 40.7117 488.638 69.6697 502.11 91.4837C508.241 101.41 512.162 112.547 515.917 123.539C519.641 134.443 522.863 145.553 526.208 156.58C540.446 203.515 549.247 246.678 536.866 295.202C532.285 313.161 524.908 330.031 518.884 347.497C512.207 366.856 508.922 387.279 501.52 406.425C496.729 418.821 490.532 430.775 484.062 442.363C481.026 447.799 477.565 453.069 474.847 458.669L474.569 459.252C474.918 472.422 478.147 486.344 480.546 499.261C483.707 516.28 487.922 535.423 496.518 550.559C508.11 570.97 546.991 601.595 565.68 617.74C574.531 625.362 583.045 633.344 591.221 641.687C600.72 651.408 612.524 662.56 618.351 674.974C619.034 676.43 627.993 699.44 631 709.5C642 746.306 652.072 805 591.221 838C571.721 848.575 547 857 537 861.5C505.562 875.647 490.5 879.333 462.5 891C402.5 916 405 914.949 382 924.5C355.5 935.504 318.5 952.413 289.5 957.413C271 960.602 228.5 982.5 192 925C184.5 880.087 188 855.5 194.5 833.5C214 793.5 226.62 758.936 246.982 746.306C252.537 742.861 269.877 733.969 273.093 729.37C275.013 726.626 273.883 721.49 273.287 718.369C268.622 693.964 253.257 672.366 240.549 651.461C236.615 644.991 232.236 638.465 229.367 631.438C225.187 621.198 226.198 610.418 224.272 599.755C223.429 595.086 221.781 589.762 217.565 587.051C214.643 585.171 210.87 584.898 207.495 585.117C197.935 585.739 187.684 589.328 178.36 591.621C164.574 595.01 150.732 598.047 136.886 601.171C119.423 605.111 97.2908 608.583 81.2568 598.291C80.2228 597.631 79.2231 596.922 78.2578 596.164C77.2931 595.406 76.3678 594.603 75.4818 593.755C74.5951 592.906 73.7524 592.016 72.9538 591.086C72.1544 590.154 71.4028 589.186 70.6988 588.182C55.1058 566.324 83.7008 542.891 79.6358 524.016C76.7618 510.672 60.6768 506.236 59.3758 498.831C58.5298 494.017 64.0848 487.759 66.6978 484.011C61.4568 481.487 56.4108 479.476 52.7318 474.761C54.0048 463.241 58.8668 450.581 55.3428 439.059C51.1408 425.323 21.2928 432.22 7.19677 424.014C3.76277 422.015 1.28178 419.048 0.300779 415.16C-0.481221 412.06 0.394766 408.872 1.40677 405.925C4.86577 395.848 10.8008 386.087 15.8148 376.686C26.4635 356.245 37.9374 336.278 50.2368 316.786C55.0078 309.325 61.0148 302.458 65.3468 294.777C66.6838 292.406 68.3578 289.676 67.5968 286.892C65.1568 283.52 59.6278 282.953 55.8608 281.539C52.4198 280.249 48.8528 278.184 47.3948 274.626C45.3628 269.667 46.8438 261.72 48.3858 256.757C53.1468 241.434 63.3808 226.322 69.6078 211.164C75.3418 197.208 79.6038 182.61 84.5198 168.347C87.9698 158.34 91.9798 148.532 95.8678 138.69C91.4658 140.954 86.4218 144.048 81.3908 144.362C75.4878 144.73 69.7828 140.498 65.6098 136.716C55.5258 127.578 39.8028 108.484 39.4478 94.4427C39.4398 94.046 39.4418 93.649 39.4538 93.2517C39.4658 92.855 39.4878 92.4587 39.5198 92.0627C39.5518 91.6674 39.5934 91.2727 39.6448 90.8787C39.6968 90.4854 39.7584 90.0934 39.8298 89.7027C39.9018 89.312 39.9831 88.9234 40.0738 88.5367C40.1651 88.1507 40.2661 87.7667 40.3768 87.3847C40.4868 87.0033 40.6064 86.625 40.7358 86.2497C40.8658 85.8744 41.0048 85.5027 41.1528 85.1347C41.3008 84.766 41.4581 84.4017 41.6248 84.0417C41.7914 83.681 41.9668 83.3247 42.1508 82.9727C42.3355 82.6214 42.5288 82.2747 42.7308 81.9327C42.9328 81.5907 43.1431 81.254 43.3618 80.9227C43.5804 80.5914 43.8074 80.266 44.0428 79.9467C44.2781 79.6267 44.5214 79.3127 44.7728 79.0047C45.0234 78.6974 45.2821 78.3964 45.5488 78.1017C45.8148 77.807 46.0881 77.5194 46.3688 77.2387C56.1148 67.3347 71.2978 67.7917 84.1558 67.8027C85.1458 56.2027 84.6818 45.5017 92.9068 36.2757C108.173 19.1507 148.099 16.0517 170.123 15.7327C185.256 15.5127 201.243 17.0027 216.216 14.9677C225.531 13.7017 234.764 11.0707 243.946 9.04568C261.645 5.14268 279.438 1.64129 297.547 0.47139Z" fill="#232323"/>
</svg>
