<svg width="856" height="1056" viewBox="0 0 856 1056" fill="none" xmlns="http://www.w3.org/2000/svg">
<path d="M514.629 113.806C512.091 111.925 509.829 110.39 506.866 109.229C504.399 108.26 503.206 107.589 500.779 108.682C498.33 107.794 487 87.2864 484.52 83.9502C452.116 40.3499 395.93 10.972 342.669 3.28316C293.98 -3.74517 241.281 -0.352444 196.736 21.9303C184.245 28.1772 173.119 35.7453 161.949 44.1063C166.421 39.0776 170.756 34.0181 175.903 29.65C191.295 16.5829 212.12 10.0146 231.028 3.82291C224.746 4.61968 218.457 5.39333 212.25 6.67459C185.422 12.216 170.59 23.9158 155.904 46.39C155.562 46.1175 155.225 45.8386 154.878 45.5739C144.517 37.6653 121.833 38.4376 109.661 40.4681C86.2707 44.3697 53.6849 61.4786 36.1905 77.3267C30.9258 82.097 26.6877 87.2735 22.555 93.036C24.9658 90.742 27.3778 88.4327 29.9016 86.2634C52.5271 66.8092 74.0462 63.3536 102.941 65.6012C80.2349 69.6712 71.6818 70.0452 50.4788 81.6125C29.2321 93.2043 10.4604 114.888 3.70626 138.292C-2.64178 160.289 -1.00983 182.749 9.95534 202.869C5.14675 185.31 4.08793 169.677 7.94559 151.762C12.3378 131.37 27.257 109.322 44.7655 97.9156C34.9941 107.634 24.1716 119.675 18.6486 132.471C10.1468 152.167 6.96383 176.496 15.0801 196.773C22.4896 215.284 33.6821 228.323 52.094 236.094C50.2076 234.174 48.3443 232.257 46.7329 230.095C35.3539 214.822 32.1491 196.38 34.9261 177.763C38.2671 155.371 48.9149 133.204 65.2631 117.362C71.7975 111.03 79.2391 105.727 86.5136 100.293C84.9733 102.54 83.4847 104.821 82.0481 107.136C62.7148 138.478 54.2182 189.798 58.3368 226.313C59.7554 238.895 65.2464 252.166 63.7969 264.854C62.6095 275.253 56.5095 286.28 50.7191 294.823C48.6562 297.842 46.4729 300.772 44.1693 303.612C41.8656 306.452 39.4494 309.193 36.9204 311.834C34.3915 314.475 31.758 317.007 29.02 319.432C26.2821 321.856 23.4495 324.164 20.5222 326.355C15.2792 330.245 9.55058 333.656 4.57623 337.881C2.81574 339.377 0.789247 340.914 0.349767 343.267C-2.15347 356.7 22.9021 368.029 29.2386 377.27C31.0646 379.933 32.0206 383.148 31.2303 386.351C29.7307 392.43 23.4739 395.693 18.5805 398.761C20.6031 407.083 25.4412 418.432 32.8983 423.093C31.4346 425.621 29.9851 428.28 29.2629 431.127C24.3194 450.614 44.984 448.813 47.9563 463.955C51.0403 479.666 39.3131 497.235 48.6065 512.335C70.5921 548.053 152.073 502.243 182.872 509.892C191.508 512.035 197.394 518.458 201.835 525.797C228.881 570.487 255.762 706.921 233.711 754.426C222.215 779.19 197.173 800.928 179.29 821.75C120.048 890.728 67.9976 966.615 45.6792 1056C74.6167 1021.17 111.789 990.375 149.115 964.913C227.142 911.686 340.991 865.034 437.078 883.433C468.119 889.376 501.54 903.725 521.485 929.224C523.396 931.668 524.645 934.384 526.379 936.925L527.323 934.686L526.328 935.116C525.581 926.423 526.203 917.761 525.317 908.999C519.098 847.591 500.707 792.887 472.474 738.12C456.69 707.504 439.274 677.544 425.881 645.769C405.255 596.837 392.772 543.615 382.6 491.601C391.387 505.141 400.445 518.361 410.281 531.167C431.63 558.96 453.624 582.265 458.846 618.752C461.102 634.519 460.297 654.134 450.2 667.342C449.38 668.414 448.725 669.235 448.21 670.501C448.747 670.441 449.022 670.451 449.55 670.172C454.087 667.773 458.868 655.874 460.569 651.025C471.195 620.75 464.129 587.107 450.597 558.999C446.413 550.394 441.296 543.313 434.973 536.144C417.228 514.735 397.285 495.227 380.097 473.403C410.914 498.021 445.785 530.089 460.136 567.717C460.125 567.513 460.116 567.308 460.1 567.104C459.616 560.842 457.341 554.195 455.376 548.254C445.877 519.53 428.496 497.248 405.725 477.9C417.036 483.237 428.858 490.327 438.725 497.992C470.357 522.564 493.551 555.854 498.389 596.397C501.036 618.572 497.509 643.309 483.412 661.185C488.218 658.699 492.488 652.024 494.882 647.303C507.996 621.449 507.115 587.068 498.102 560.128C483.483 516.429 450.065 489.16 410.148 469.335C401.911 465.244 393.086 462.387 384.957 458.275C384.764 458.177 384.574 458.076 384.381 457.976C401.315 460.159 414.683 458.557 430.808 454.054C457.547 441.605 479.195 424.728 497.02 401.101C502.161 394.286 504.101 383.969 509.826 377.688L510.116 377.873C486.178 405.579 488.748 406.221 468.188 424.855C466.874 425.338 431.471 453.828 430.147 454.282C421.404 457.154 393.532 457.288 384.381 458.275C403.691 464.686 447.35 450.382 464.975 441.562C498.947 416.502 508.592 399.297 528.584 363.812C546.275 309.622 548.159 241.563 533.518 186.868C538.888 185.966 541.656 184.452 545.77 180.938C564.081 190.182 575.031 204.281 581.445 223.722C585.506 236.033 587.187 248.606 588.164 261.472C592.431 317.696 572.503 376.381 554.942 429.167C546.624 454.169 538.15 478.926 533.098 504.844C530.189 519.764 526.842 537.587 528.209 552.825C528.266 552.631 528.324 552.437 528.379 552.243C530.625 544.163 531.314 535.43 532.866 527.169C535.714 512.025 539.302 496.633 543.599 481.838C551.513 454.596 561.776 428.159 570.198 401.101C576.831 379.786 581.949 358.568 585.667 336.583C586.655 330.742 588.047 324.743 588.678 318.875C589.053 315.385 588.494 300.666 590.708 299.231L590.753 299.593L589.716 299.672L591.248 300.12C591.554 306.406 590.998 312.803 590.862 319.102C589.806 368.126 579.937 416.393 566.519 463.414C557.841 493.825 547.072 523.596 538.579 554.056C536.349 561.824 534.311 569.641 532.467 577.51C530.621 585.378 528.971 593.287 527.515 601.236C526.06 609.185 524.801 617.166 523.739 625.177C522.677 633.189 521.813 641.222 521.147 649.276C520.344 659.256 519.294 669.364 519.164 679.376C519.135 683.493 519.209 687.607 519.388 691.72C519.565 695.833 519.846 699.939 520.23 704.038C520.615 708.136 521.102 712.223 521.692 716.296C522.282 720.371 522.974 724.428 523.768 728.466C524.562 732.506 525.456 736.523 526.453 740.518C527.449 744.513 528.545 748.479 529.74 752.419C530.935 756.358 532.228 760.265 533.621 764.139C535.013 768.012 536.501 771.849 538.086 775.648C547.603 797.903 560.956 820.565 578.945 836.937C583.828 841.38 589.166 845.54 594.833 848.938C584.584 838.189 574.344 826.853 565.929 814.584C560.921 807.283 556.886 799.359 552.801 791.518C531.933 751.47 523.094 712.095 524.113 667.106C524.218 662.482 524.567 657.963 525.292 653.396C525.841 661.399 526.104 669.536 527.049 677.499C532.592 724.251 548.657 778.197 579.125 814.643C584.879 821.526 590.687 828.442 597.009 834.815C601.073 838.915 615.184 850.783 617.317 854.235C622.303 858.082 627.253 861.973 632.167 865.91C651.367 876.494 660.349 883.509 682.498 890.367C656.301 870.774 639.422 852.582 621.484 825.268L621.817 824.685L621.306 824.178C623.421 825.298 633.147 838.176 635.648 840.983C657.731 865.773 689.42 891.925 721.907 900.827C751.513 908.941 787.599 909.851 814.928 894.172C816.084 893.516 817.224 892.832 818.347 892.119C819.469 891.407 820.574 890.667 821.66 889.899C822.746 889.133 823.813 888.339 824.861 887.519C825.908 886.7 826.934 885.856 827.94 884.985C828.945 884.115 829.928 883.22 830.89 882.302C831.852 881.383 832.79 880.441 833.705 879.476C834.62 878.511 835.51 877.525 836.376 876.516C837.243 875.507 838.084 874.477 838.9 873.427C839.716 872.376 840.505 871.307 841.267 870.218C842.03 869.128 842.766 868.021 843.473 866.896C844.182 865.77 844.862 864.628 845.514 863.468C846.166 862.309 846.789 861.135 847.384 859.946C847.977 858.756 848.542 857.552 849.076 856.335C849.612 855.117 850.116 853.887 850.59 852.644C851.064 851.402 851.507 850.148 851.92 848.884C852.332 847.62 852.713 846.346 853.062 845.063C859.517 820.879 855.028 798.517 842.607 777.304C845.335 787.126 846.698 796.602 844.904 806.748C842.398 820.915 834.084 832.996 822.272 841.071C805.515 852.527 785.115 853.423 765.698 849.799C742.678 845.5 719.032 832.831 705.723 813.159C685.958 783.944 680.158 740.266 686.66 705.884C688.296 739.435 698.044 774.47 718.619 801.389C736.669 825.009 758.144 840.169 787.904 844.094C783.355 842.616 778.896 841.019 774.622 838.853C737.302 819.95 720.513 781.856 708.056 744.154C722.484 767.751 740.482 787.546 768.117 794.72C781.07 798.081 799.097 798.588 810.984 791.563C798.162 793.416 786.428 793.177 773.854 789.72C748.154 782.655 730.3 764.335 717.575 741.629C696.222 703.52 697.372 665.091 708.768 624.238C709.99 616.951 712.037 609.643 713.711 602.435L724.609 555.74C730.05 531.653 733.737 506.787 736.713 482.282L737.052 482.294L737.145 481.545L737.221 482.537L736.898 482.81L737.227 483.165C737.027 515.818 731.859 547.457 722.979 578.785C724.725 576.239 726.033 573.239 727.372 570.457C732.565 559.658 736.511 548.708 740.382 537.381C755.608 492.819 757.628 456.886 754.173 410.273C752.606 389.139 749.984 367.52 744.85 346.933C740.572 329.782 734.134 313.133 728.286 296.473C735.398 308.276 741.257 321.385 746.328 334.191C771.304 397.259 770.59 453.918 752.417 518.604C748.335 533.134 744.543 547.498 738.556 561.394C744.168 554.273 750.011 547.078 754.309 539.068C758.052 532.095 760.755 524.581 764.612 517.672L764.946 517.082C757.795 543.738 744.741 574.062 731.495 598.329C725.582 609.16 718.247 619.356 713.009 630.524L712.542 631.536C723.147 620.074 732.926 608.02 740.969 594.593C762.924 557.94 774.822 508.64 777.024 466.226C777.372 460.323 777.574 454.415 777.63 448.502C777.686 442.589 777.597 436.678 777.361 430.77C777.126 424.861 776.745 418.963 776.219 413.073C775.693 407.183 775.022 401.31 774.206 395.453C773.391 389.596 772.431 383.764 771.328 377.955C770.224 372.145 768.979 366.367 767.591 360.619C766.203 354.871 764.674 349.16 763.005 343.488C761.335 337.815 759.527 332.187 757.579 326.604C749.536 304.007 739.098 282.103 729.517 260.124C714.37 225.379 698.406 191.2 676.06 160.371C669.602 151.464 662.237 142.469 654.609 134.539C649.197 128.914 643.185 123.834 637.969 118.032L638.52 117.871C646.886 124.074 655.172 130.308 662.64 137.601C672.259 146.994 680.528 157.55 688.564 168.288C724.82 216.722 747.498 272.429 766.09 329.546L767.123 329.652L766.897 330.553C766.959 326.324 762.38 308.647 761.053 303.604C746.054 246.609 713.73 182.327 673.314 139.442C648.669 113.292 615.27 93.4819 578.674 92.4795C554.978 91.8305 532.24 97.1805 514.629 113.806Z" fill="#232323"/>
</svg>
